<svg xmlns="http://www.w3.org/2000/svg" viewBox="0 0 32 32" fill="none">
  <!-- Bottom bun -->
  <path
    d="M4 22.5c0-1.2.8-2.2 2-2.5h20c1.2.3 2 1.3 2 2.5 0 1.8-2.2 3.5-12 3.5S4 24.3 4 22.5Z"
    fill="#D4A05A"
  />
  <path
    d="M5.5 21.2c.4-.6 1.2-1 2.1-1.1h16.8c.9.1 1.7.5 2.1 1.1"
    stroke="#C48A42"
    stroke-width="1"
    stroke-linecap="round"
  />
  <!-- Patty -->
  <rect x="4.5" y="17.6" width="23" height="3.2" rx="1.5" fill="#6B3A22" />
  <!-- Cheese -->
  <path d="M5 16.2h22l-1.2 2.2H6.2L5 16.2Z" fill="#F0C04A" />
  <!-- Lettuce -->
  <path
    d="M5 14.4c1.4.9 2.6-.4 4 .4 1.3.8 2.4-.5 3.8.3 1.4.8 2.5-.4 3.9.4 1.4.8 2.5-.5 3.9.3 1.4.8 2.5-.4 3.9.4.5.3 1 .2 1.5-.1v1.1H5v-2.8Z"
    fill="#5AAE4A"
  />
  <!-- Tomato -->
  <rect x="6" y="12.4" width="20" height="2.2" rx="1.1" fill="#D94A3A" />
  <!-- Top bun -->
  <path
    d="M4.5 12.2c0-4.2 3.8-7.7 11.5-7.7S27.5 8 27.5 12.2c0 .6-.4 1.1-1 1.1H5.5c-.6 0-1-.5-1-1.1Z"
    fill="#E8B86A"
  />
  <!-- Sesame seeds -->
  <ellipse cx="11" cy="7.8" rx="1.1" ry="0.55" fill="#F5E6C8" transform="rotate(-25 11 7.8)" />
  <ellipse cx="16.2" cy="6.6" rx="1.1" ry="0.55" fill="#F5E6C8" transform="rotate(12 16.2 6.6)" />
  <ellipse cx="21" cy="8.1" rx="1.1" ry="0.55" fill="#F5E6C8" transform="rotate(-8 21 8.1)" />
  <ellipse cx="14" cy="9.6" rx="0.9" ry="0.45" fill="#F5E6C8" transform="rotate(20 14 9.6)" />
  <ellipse cx="19.2" cy="9.4" rx="0.9" ry="0.45" fill="#F5E6C8" transform="rotate(-18 19.2 9.4)" />
</svg>
