<svg xmlns="http://www.w3.org/2000/svg" width="1200" height="630" viewBox="0 0 1200 630" fill="none">
  <defs>
    <radialGradient id="wallWash" cx="0.35" cy="0.2" r="0.85">
      <stop offset="0" stop-color="#f2e4d0"/>
      <stop offset="1" stop-color="#e8d9c8"/>
    </radialGradient>
    <radialGradient id="windowGlow" cx="0.78" cy="0.45" r="0.55">
      <stop offset="0" stop-color="#c8a078" stop-opacity="0.28"/>
      <stop offset="1" stop-color="#c8a078" stop-opacity="0"/>
    </radialGradient>
    <linearGradient id="sunset" x1="720" y1="70" x2="720" y2="570" gradientUnits="userSpaceOnUse">
      <stop offset="0" stop-color="#2a3a6e"/>
      <stop offset="0.14" stop-color="#354072"/>
      <stop offset="0.26" stop-color="#5a4872"/>
      <stop offset="0.36" stop-color="#a0556c"/>
      <stop offset="0.44" stop-color="#c45a6a"/>
      <stop offset="0.52" stop-color="#d86852"/>
      <stop offset="0.60" stop-color="#e87840"/>
      <stop offset="0.70" stop-color="#ec9850"/>
      <stop offset="0.80" stop-color="#f0b060"/>
      <stop offset="0.90" stop-color="#f5d090"/>
      <stop offset="1" stop-color="#d4a878"/>
    </linearGradient>
    <radialGradient id="sun" cx="0.74" cy="0.68" r="0.22">
      <stop offset="0" stop-color="#fff8dc" stop-opacity="0.95"/>
      <stop offset="0.35" stop-color="#ffd28c" stop-opacity="0.45"/>
      <stop offset="1" stop-color="#ffd28c" stop-opacity="0"/>
    </radialGradient>
    <linearGradient id="leafFill" x1="0" y1="0" x2="1" y2="1">
      <stop offset="0" stop-color="#3d7a4a"/>
      <stop offset="0.55" stop-color="#2a5f38"/>
      <stop offset="1" stop-color="#1e4a2c"/>
    </linearGradient>
    <linearGradient id="leafAccent" x1="0" y1="0" x2="1" y2="1">
      <stop offset="0" stop-color="#4a8a58"/>
      <stop offset="1" stop-color="#2f6b3c"/>
    </linearGradient>
    <clipPath id="pane"><rect x="720" y="70" width="420" height="500" rx="2"/></clipPath>
    <!-- Delapouite / game-icons.net monstera leaf (CC BY 3.0) — same as room plant -->
    <path id="monsteraLeaf" d="M332.9 17.37c-11.7-.1-24.2 1.23-37.5 4.13-33.1 7.21-48.6 28.49-56.2 54.09 11.2 22.86 20.1 46.01 25 71.91-9.6-6.9-19.7-1.7-22.6 5-4.3-22.4-10-42.9-17.8-62.93-48.8-34.88-83-20.9-89.6-18.76C49.64 98.12 25.54 165.7 39.84 239.1c19.32-43.4 86.56-68.7 113.56-68.6 6.9.1 47 9.5 13.6 20-54.8 17.3-98.29 48.7-116.81 86 8.78 24.5 21.34 49.1 36.89 72.4 14.42-42 40.22-89 96.72-125.1 14.5-9.3 23.8.7 12.2 13.2-53.5 57.4-75.1 104.2-81 148.6 17.4 20.3 37.2 38.9 58.5 54.7 1.6-54.4 20.3-117.7 56.3-164.6 3.7-6.6 22-2.7 15.6 9-27.9 50.9-43.2 119.9-44.5 174 25.6 15.2 52.9 26.3 80.9 31.9-15.1-35.2-18.5-80.5-6.9-120.8 5.1-17.8 20.8-8.1 17.6 4.2-10 38.8 8.6 87.5 28.1 120.6 20.7.1 41.6-3.1 62.3-10.2 11.8-4 22.7-12.3 32.7-23.8-11.3-22.8-27-44.1-46.6-57.2-7.4-5-3.2-23.6 10.2-14.8 19.1 12.6 37.6 29.7 52.8 48.7 9.8-16.8 18.2-37 25-59.4-29.7-34.7-83.3-82-128.8-101.7-9.6-4.1-8.7-21.5 7.6-16.4 47.8 14.8 98 46.2 131.1 78 3.9-19.9 6.7-40.8 8.1-61.9-39-27.6-95.5-67.2-147.1-74.8-9.5-1.4-13.6-18.6 3-17.8 58.3 2.7 109.8 23.5 145.1 50.5-.5-28.6-3.6-56.7-9.7-82.9-41.7-13.6-113.5-18.5-141.5-6.1-11.1 4.9-29.9-4.8-6.8-16.6 37.6-22.1 94.5-22.8 138.3-11-21.3-57.97-60.7-99.32-123.4-99.83z"/>
  </defs>

  <rect width="1200" height="630" fill="#e8d9c8"/>
  <rect width="1200" height="630" fill="url(#wallWash)"/>
  <rect width="1200" height="630" fill="url(#windowGlow)"/>

  <g clip-path="url(#pane)">
    <rect x="720" y="70" width="420" height="500" fill="url(#sunset)"/>
    <rect x="720" y="70" width="420" height="500" fill="url(#sun)"/>
  </g>

  <rect x="700" y="50" width="460" height="540" fill="none" stroke="#8a7355" stroke-width="20"/>
  <line x1="930" y1="70" x2="930" y2="570" stroke="#8a7355" stroke-width="14"/>
  <line x1="720" y1="300" x2="1140" y2="300" stroke="#8a7355" stroke-width="14"/>
  <rect x="704" y="54" width="452" height="8" fill="#b89870"/>
  <rect x="704" y="558" width="452" height="8" fill="#b89870"/>
  <rect x="688" y="566" width="484" height="32" rx="3" fill="#9a8060"/>
  <rect x="688" y="566" width="484" height="10" fill="#c4a882"/>

  <!-- Big leaf top-left; small above Studio; pair below title toward the window -->
  <g opacity="0.92">
    <use href="#monsteraLeaf" fill="url(#leafFill)" transform="translate(-35, 10) rotate(-34) scale(0.58)"/>
    <use href="#monsteraLeaf" fill="url(#leafAccent)" opacity="0.82" transform="translate(420, 50) rotate(18) scale(0.26)"/>
  </g>

  <text x="64" y="300" fill="#1c2420" font-family="Georgia, 'Times New Roman', serif" font-size="80" font-weight="700">John's Studio</text>
  <text x="64" y="370" fill="#4a3e34" font-family="system-ui, Helvetica, sans-serif" font-size="24">An interactive 3D portfolio by John Berger</text>
  <text x="64" y="545" fill="#6a5a4a" font-family="system-ui, Helvetica, sans-serif" font-size="19">johnberger.dev</text>

  <g opacity="0.88">
    <use href="#monsteraLeaf" fill="url(#leafAccent)" opacity="0.78" transform="translate(340, 455) rotate(24) scale(0.2)"/>
    <use href="#monsteraLeaf" fill="#245832" opacity="0.6" transform="translate(480, 420) rotate(-8) scale(0.17)"/>
  </g>
</svg>
